<svg fill="none" xmlns="http://www.w3.org/2000/svg">

    <!-- Icon Header -->
    <g id="contrast">
        <g clip-path="url(#clip0_1_1480)">
            <path
                d="M15.5 27C8.59625 27 3 21.4037 3 14.5C3 7.59625 8.59625 2 15.5 2C22.4037 2 28 7.59625 28 14.5C28 21.4037 22.4037 27 15.5 27ZM7.16125 20.0312C7.98286 21.2605 9.06683 22.2923 10.3351 23.0523C11.6034 23.8123 13.0245 24.2816 14.4959 24.4264C15.9674 24.5712 17.4526 24.3879 18.8448 23.8897C20.2369 23.3915 21.5012 22.5908 22.5466 21.5452C23.5921 20.4997 24.3927 19.2353 24.8908 17.8432C25.3888 16.451 25.572 14.9657 25.4271 13.4943C25.2822 12.0228 24.8127 10.6018 24.0526 9.3336C23.2925 8.06538 22.2606 6.98149 21.0312 6.16C21.5702 8.08278 21.5875 10.1144 21.0814 12.0461C20.5752 13.9778 19.5639 15.7398 18.1513 17.1513C16.74 18.5637 14.9781 19.5749 13.0467 20.081C11.1152 20.5872 9.08385 20.57 7.16125 20.0312Z"
                fill="#5D478B" />
        </g>
        <defs>
            <clipPath id="clip0_1_1480">
                <rect width="30" height="30" fill="white" />
            </clipPath>
        </defs>
    </g>

    <g id="home">
        <g clip-path="url(#clip0_1_1586)">
            <path
                d="M14.9999 14.9999C14.9999 15.1989 14.9209 15.3896 14.7803 15.5303C14.6396 15.6709 14.4488 15.7499 14.2499 15.7499H3.74992C3.55101 15.7499 3.36025 15.6709 3.21959 15.5303C3.07894 15.3896 2.99992 15.1989 2.99992 14.9999V8.24994H0.749924L8.49517 1.20894C8.63326 1.0833 8.81323 1.01367 8.99992 1.01367C9.18661 1.01367 9.36659 1.0833 9.50467 1.20894L17.2499 8.24994H14.9999V14.9999Z"
                fill="#5D478B" />
        </g>
        <defs>
            <clipPath id="clip0_1_1586">
                <rect width="18" height="18" fill="white" />
            </clipPath>
        </defs>
    </g>

    <g id="service">
        <g clip-path="url(#clip0_1_1598)">
            <path
                d="M17.5 4.28699V4.5H12V0H12.2603C12.5338 0 12.7962 0.0889101 12.9896 0.247113L17.198 3.69035C17.3913 3.8486 17.5 4.06321 17.5 4.28699ZM11.6562 5.625C11.0891 5.625 10.625 5.24531 10.625 4.78125V0H2.03125C1.4617 0 1 0.377754 1 0.84375V17.1562C1 17.6222 1.4617 18 2.03125 18H16.4688C17.0383 18 17.5 17.6222 17.5 17.1562V5.625H11.6562ZM6.29401 14.0803C6.27317 14.0984 6.24815 14.1131 6.22039 14.1234C6.19263 14.1337 6.16266 14.1394 6.13221 14.1402C6.10175 14.141 6.0714 14.1368 6.04289 14.1281C6.01437 14.1193 5.98826 14.106 5.96603 14.0889L3.17882 11.951C3.15567 11.9332 3.13722 11.9118 3.1246 11.888C3.11199 11.8641 3.10548 11.8384 3.10548 11.8125C3.10548 11.7865 3.11199 11.7608 3.1246 11.737C3.13722 11.7132 3.15567 11.6917 3.17882 11.674L5.96603 9.53606C5.98826 9.51901 6.01437 9.50571 6.04289 9.49691C6.0714 9.48812 6.10175 9.484 6.13221 9.48481C6.16266 9.48561 6.19263 9.49131 6.22039 9.50159C6.24815 9.51187 6.27317 9.52652 6.29401 9.54471L7.13529 10.2789C7.15655 10.2975 7.17304 10.3194 7.18377 10.3432C7.19451 10.3671 7.19927 10.3925 7.19778 10.4179C7.19629 10.4433 7.18858 10.4682 7.1751 10.4911C7.16161 10.514 7.14264 10.5345 7.11931 10.5513L5.36777 11.8125L7.11931 13.0737C7.14264 13.0905 7.16161 13.111 7.1751 13.1339C7.18858 13.1568 7.19629 13.1817 7.19778 13.2071C7.19927 13.2325 7.19451 13.2579 7.18377 13.2818C7.17304 13.3056 7.15655 13.3275 7.13529 13.3461L6.29401 14.0803ZM8.49809 15.8549L7.31847 15.5747C7.25937 15.5607 7.20951 15.528 7.17985 15.4839C7.15019 15.4398 7.14316 15.3878 7.1603 15.3394L9.8003 7.89947C9.81747 7.85112 9.85741 7.81032 9.91133 7.78606C9.96525 7.76179 10.0287 7.75603 10.0878 7.77006L11.2674 8.05025C11.2967 8.05721 11.324 8.06881 11.3478 8.08439C11.3716 8.09998 11.3914 8.11924 11.406 8.14109C11.4207 8.16294 11.43 8.18694 11.4334 8.21172C11.4367 8.2365 11.434 8.26158 11.4256 8.28552L8.78555 15.7255C8.77707 15.7494 8.76291 15.7718 8.74387 15.7913C8.72483 15.8107 8.70129 15.8269 8.6746 15.8389C8.6479 15.851 8.61857 15.8586 8.58829 15.8613C8.558 15.864 8.52735 15.8619 8.49809 15.8549ZM15.4071 11.951L12.6199 14.0889C12.5977 14.106 12.5716 14.1193 12.5431 14.1281C12.5145 14.1368 12.4842 14.141 12.4537 14.1402C12.4233 14.1394 12.3933 14.1337 12.3655 14.1234C12.3378 14.1131 12.3128 14.0984 12.2919 14.0803L11.4506 13.346C11.4293 13.3275 11.4129 13.3056 11.4021 13.2817C11.3914 13.2579 11.3866 13.2325 11.3881 13.2071C11.3896 13.1817 11.3973 13.1568 11.4108 13.1338C11.4243 13.1109 11.4433 13.0905 11.4666 13.0737L13.2182 11.8125L11.4666 10.5513C11.4433 10.5345 11.4243 10.514 11.4108 10.4911C11.3974 10.4682 11.3896 10.4433 11.3882 10.4179C11.3867 10.3925 11.3914 10.3671 11.4022 10.3432C11.4129 10.3194 11.4294 10.2975 11.4506 10.2789L12.292 9.54471C12.3128 9.52652 12.3378 9.51187 12.3656 9.50159C12.3934 9.49131 12.4233 9.48561 12.4538 9.48481C12.4842 9.484 12.5146 9.48812 12.5431 9.49691C12.5716 9.50571 12.5977 9.51901 12.62 9.53606L15.4072 11.674C15.4303 11.6917 15.4488 11.7132 15.4614 11.737C15.474 11.7608 15.4805 11.7865 15.4805 11.8125C15.4805 11.8385 15.474 11.8641 15.4613 11.888C15.4487 11.9118 15.4303 11.9332 15.4071 11.951Z"
                fill="#5D478B" />
        </g>
        <defs>
            <clipPath id="clip0_1_1598">
                <rect width="16.5" height="18" fill="white" transform="translate(1)" />
            </clipPath>
        </defs>
    </g>

    <g id="works">
        <g clip-path="url(#clip0_1_1592)">
            <path
                d="M15.75 1.5C4.5 1.5 3 12 2.25 16.5H3.7485C4.248 14.0002 5.49825 12.6255 7.5 12.375C10.5 12 12.75 9.375 13.5 7.125L12.375 6.375L13.125 5.625C13.875 4.875 14.628 3.75 15.75 1.5Z"
                fill="#5D478B" />
        </g>
        <defs>
            <clipPath id="clip0_1_1592">
                <rect width="18" height="18" fill="white" />
            </clipPath>
        </defs>
    </g>

    <g id="message">
        <g clip-path="url(#clip0_1_1567)">
            <path
                d="M2.25 2.25H15.75C15.9489 2.25 16.1397 2.32902 16.2803 2.46967C16.421 2.61032 16.5 2.80109 16.5 3V15C16.5 15.1989 16.421 15.3897 16.2803 15.5303C16.1397 15.671 15.9489 15.75 15.75 15.75H2.25C2.05109 15.75 1.86032 15.671 1.71967 15.5303C1.57902 15.3897 1.5 15.1989 1.5 15V3C1.5 2.80109 1.57902 2.61032 1.71967 2.46967C1.86032 2.32902 2.05109 2.25 2.25 2.25ZM9.045 8.76225L4.236 4.6785L3.26475 5.8215L9.05475 10.7378L14.7405 5.81775L13.7595 4.683L9.04575 8.76225H9.045Z"
                fill="#5D478B" />
        </g>
        <defs>
            <clipPath id="clip0_1_1567">
                <rect width="18" height="18" fill="white" />
            </clipPath>
        </defs>
    </g>

    <g id="contact">
        <g clip-path="url(#clip0_1_1570)">
            <path
                d="M4.5 1.5H13.5C13.6989 1.5 13.8897 1.57902 14.0303 1.71967C14.171 1.86032 14.25 2.05109 14.25 2.25V15.75C14.25 15.9489 14.171 16.1397 14.0303 16.2803C13.8897 16.421 13.6989 16.5 13.5 16.5H4.5C4.30109 16.5 4.11032 16.421 3.96967 16.2803C3.82902 16.1397 3.75 15.9489 3.75 15.75V2.25C3.75 2.05109 3.82902 1.86032 3.96967 1.71967C4.11032 1.57902 4.30109 1.5 4.5 1.5ZM9 12.75C8.80109 12.75 8.61032 12.829 8.46967 12.9697C8.32902 13.1103 8.25 13.3011 8.25 13.5C8.25 13.6989 8.32902 13.8897 8.46967 14.0303C8.61032 14.171 8.80109 14.25 9 14.25C9.19891 14.25 9.38968 14.171 9.53033 14.0303C9.67098 13.8897 9.75 13.6989 9.75 13.5C9.75 13.3011 9.67098 13.1103 9.53033 12.9697C9.38968 12.829 9.19891 12.75 9 12.75Z"
                fill="#5D478B" />
        </g>
        <defs>
            <clipPath id="clip0_1_1570">
                <rect width="18" height="18" fill="white" />
            </clipPath>
        </defs>
    </g>

    <g id="location">
        <g clip-path="url(#clip0_1_1564)">
            <path
                d="M1.5 3.75L6.75 1.5L11.25 3.75L15.9772 1.72425C16.0343 1.69979 16.0966 1.68988 16.1584 1.69541C16.2202 1.70094 16.2797 1.72173 16.3316 1.75593C16.3834 1.79013 16.4259 1.83666 16.4553 1.89135C16.4847 1.94603 16.5001 2.00716 16.5 2.06925V14.25L11.25 16.5L6.75 14.25L2.02275 16.2758C1.96569 16.3002 1.90344 16.3101 1.8416 16.3046C1.77976 16.2991 1.72026 16.2783 1.66844 16.2441C1.61662 16.2099 1.5741 16.1633 1.54471 16.1087C1.51531 16.054 1.49994 15.9928 1.5 15.9307V3.75ZM11.25 14.823V5.382L11.2013 5.403L6.75 3.177V12.618L6.79875 12.597L11.25 14.823Z"
                fill="#5D478B" />
        </g>
        <defs>
            <clipPath id="clip0_1_1564">
                <rect width="18" height="18" fill="white" />
            </clipPath>
        </defs>
    </g>

    <g id="adPopUp">
        <g clip-path="url(#clip0_1_1539)">
            <path
                d="M47.7894 10.313C48.3873 10.313 48.8719 9.82836 48.8719 9.23049C48.8719 8.63262 48.3873 8.14795 47.7894 8.14795C47.1915 8.14795 46.7068 8.63262 46.7068 9.23049C46.7068 9.82836 47.1915 10.313 47.7894 10.313Z"
                fill="#2B2B2B" />
            <path
                d="M52.4415 10.313C53.0394 10.313 53.5241 9.82836 53.5241 9.23049C53.5241 8.63262 53.0394 8.14795 52.4415 8.14795C51.8437 8.14795 51.359 8.63262 51.359 9.23049C51.359 9.82836 51.8437 10.313 52.4415 10.313Z"
                fill="#2B2B2B" />
            <path
                d="M20.4759 10.3145H39.9569C40.5556 10.3145 41.0409 9.82912 41.0409 9.23047C41.0409 8.63182 40.5556 8.14648 39.9569 8.14648H20.4759C19.8772 8.14648 19.3919 8.63182 19.3919 9.23047C19.3919 9.82912 19.8772 10.3145 20.4759 10.3145Z"
                fill="#2B2B2B" />
            <path
                d="M71.1202 59.3696H69.2178V52.2685C69.2178 51.6698 68.7324 51.1845 68.1338 51.1845C67.5351 51.1845 67.0498 51.6698 67.0498 52.2685V59.3696C62.404 59.3696 9.81729 59.3696 6.95036 59.3696V22.7627C6.95036 21.2885 8.14968 20.089 9.62405 20.089H14.7685V23.0093H11.9462C10.8017 23.0093 9.87062 23.9405 9.87062 25.085V54.3736C9.87062 55.5181 10.8017 56.4493 11.9462 56.4493H62.0536C63.1982 56.4493 64.1292 55.5181 64.1292 54.3736V25.085C64.1292 23.9405 63.1982 23.0093 62.0536 23.0093H59.2315V20.089H64.376C65.8502 20.089 67.0496 21.2883 67.0496 22.7627V47.1977C67.0496 47.7964 67.535 48.2817 68.1336 48.2817C68.7323 48.2817 69.2176 47.7964 69.2176 47.1977V22.7627C69.2176 20.0931 67.0457 17.9211 64.376 17.9211H59.2315V5.99145C59.2315 4.76582 58.2344 3.76855 57.0086 3.76855H16.9914C15.7656 3.76855 14.7685 4.76568 14.7685 5.99145V17.9211H9.6239C6.95427 17.9211 4.78225 20.0929 4.78225 22.7627V59.3697H2.87979C1.29182 59.3696 0 60.6615 0 62.2495C0 66.6509 3.58091 70.2318 7.98232 70.2318H66.0177C70.4191 70.2318 74 66.6509 74 62.2495C74 60.6614 72.7082 59.3696 71.1202 59.3696ZM12.0386 25.1772H14.7683V54.2814H12.0386V25.1772ZM61.9614 25.1772V54.2814H59.2317V25.1772H61.9614ZM16.9914 5.93667H57.0088C57.039 5.93667 57.0637 5.96124 57.0637 5.99159V12.5244H25.4164C24.8178 12.5244 24.3324 13.0097 24.3324 13.6084C24.3324 14.207 24.8178 14.6924 25.4164 14.6924H57.0637V54.2815H16.9363V14.6922H20.3487C20.9473 14.6922 21.4327 14.2069 21.4327 13.6082C21.4327 13.0096 20.9473 12.5243 20.3487 12.5243H16.9363V5.99145C16.9363 5.96124 16.961 5.93667 16.9914 5.93667ZM26.5504 61.5376H47.4496V62.627C47.4496 63.2278 46.9608 63.7166 46.36 63.7166H27.64C27.0392 63.7166 26.5504 63.2278 26.5504 62.627V61.5376ZM66.0177 68.0637H7.98232C4.77632 68.0637 2.16797 65.4554 2.16797 62.2494C2.16797 61.857 2.48724 61.5376 2.87979 61.5376H24.3824V62.627C24.3824 64.4233 25.8438 65.8846 27.64 65.8846H46.36C48.1562 65.8846 49.6176 64.4233 49.6176 62.627V61.5376H71.1202C71.5128 61.5376 71.832 61.8568 71.832 62.2494C71.832 65.4555 69.2237 68.0637 66.0177 68.0637Z"
                fill="#2B2B2B" />
            <path
                d="M22.5482 34.8115L21.7623 35.0139C20.0179 35.4633 18.9696 37.2389 19.4191 38.9836L19.9618 41.0903C20.3402 42.5592 21.6674 43.5371 23.1188 43.537C23.7424 43.537 24.0906 43.3735 24.8462 43.1979C25.3956 43.838 26.233 44.1925 27.1009 44.1093L30.9021 49.871C31.2972 50.4701 31.9621 50.8157 32.6571 50.8157C33.0878 50.8157 33.2741 50.7082 34.4117 50.4321C35.5369 50.1425 36.213 48.9972 35.9232 47.8719L34.4739 42.2464L36.0206 41.848C40.1412 40.7865 44.4812 41.8024 47.6978 44.5644L47.7113 44.6172C47.9202 45.428 48.4324 46.1089 49.1535 46.5345C49.6426 46.8233 50.188 46.971 50.7414 46.971C51.0039 46.971 51.2681 46.9378 51.5288 46.8706C52.3397 46.6617 53.0205 46.1495 53.4462 45.4284C53.8718 44.7074 53.9912 43.8637 53.7822 43.0531L48.0007 20.6126C47.7918 19.8017 47.2796 19.1209 46.5586 18.6952C45.8376 18.2697 44.994 18.1503 44.183 18.3592C43.3722 18.568 42.6913 19.0802 42.2657 19.8013C41.84 20.5224 41.7207 21.366 41.9297 22.1767L41.9432 22.2294C40.4618 26.2019 37.153 29.1886 33.0326 30.2502L24.5214 32.443C23.3957 32.7331 22.6281 33.7114 22.5482 34.8115ZM23.3908 41.3341C22.8082 41.4843 22.2115 41.1324 22.0612 40.5495L21.5185 38.4428C21.3679 37.8585 21.719 37.264 22.3033 37.1134L22.9543 36.9456L24.0417 41.1665L23.3908 41.3341ZM33.8074 48.3491L32.686 48.638L29.3416 43.5688L32.3744 42.7874L33.8074 48.3491ZM44.1326 20.9032C44.2638 20.6809 44.4738 20.523 44.7239 20.4585C44.8045 20.4377 44.8853 20.4279 44.965 20.4279C45.3954 20.4279 45.7889 20.7179 45.9012 21.1534L51.6828 43.5939C51.8157 44.11 51.504 44.6381 50.9879 44.7711C50.4719 44.9041 49.9436 44.5925 49.8107 44.0762L44.029 21.6357C43.9647 21.3857 44.0014 21.1256 44.1326 20.9032ZM42.7794 25.4745L46.8616 41.3191C41.0175 37.9137 35.4519 39.7816 35.323 39.7888L33.4168 32.3898C33.5338 32.3335 39.3021 31.2904 42.7794 25.4745ZM25.0623 34.5425L31.3173 32.931L33.2235 40.3299C31.3201 40.8203 28.2819 41.6031 26.9686 41.9415C26.5142 42.0581 26.3995 41.5979 26.3879 41.5835L24.7222 35.1186C24.6572 34.8659 24.8098 34.6075 25.0623 34.5425Z"
                fill="#2B2B2B" />
        </g>
        <defs>
            <clipPath id="clip0_1_1539">
                <rect width="74" height="74" fill="white" />
            </clipPath>
        </defs>
    </g>

    <!-- Icon My Skills -->

    <g id="iconJS">
        <path
            d="m10.639 24c-.001 0-.002 0-.003 0-.339 0-.656-.091-.928-.251l.009.005-2.937-1.737c-.438-.246-.224-.332-.08-.383.506-.159.946-.365 1.352-.618l-.024.014c.028-.013.06-.02.094-.02.046 0 .089.014.125.038l-.001-.001 2.256 1.339c.039.021.086.034.136.034s.097-.013.138-.035l-.002.001 8.794-5.077c.081-.05.134-.138.134-.238 0-.001 0-.001 0-.002v-10.147c-.001-.101-.055-.19-.136-.239l-.001-.001-8.791-5.072c-.039-.022-.086-.035-.135-.035s-.096.013-.137.036l.001-.001-8.789 5.073c-.083.049-.138.138-.139.24v10.149c0 .101.055.188.137.234l.001.001 2.41 1.392c1.307.654 2.107-.116 2.107-.889v-10.022c0-.14.114-.254.254-.254h.003 1.115.001c.14 0 .254.113.254.254v10.022c0 1.745-.95 2.746-2.604 2.746-.02 0-.043.001-.066.001-.725 0-1.402-.205-1.976-.56l-2.29-1.318c-.556-.328-.922-.923-.922-1.605v-10.151c.001-.68.368-1.273.914-1.595l.009-.005 8.795-5.082c.267-.149.585-.236.924-.236s.658.088.934.241l-.01-.005 8.794 5.082c.555.327.921.92.923 1.6v10.15c-.001.681-.368 1.276-.915 1.6l-.009.005-8.792 5.078c-.264.155-.582.246-.922.246-.002 0-.005 0-.007 0z" />
        <path
            d="m13.356 17.009c-3.848 0-4.655-1.766-4.655-3.249v-.001c0-.14.113-.253.253-.253h.002 1.137.001c.127 0 .232.093.252.214v.001c.171 1.158.683 1.742 3.01 1.742 1.853 0 2.64-.419 2.64-1.402 0-.567-.223-.987-3.102-1.269-2.406-.24-3.894-.77-3.894-2.695 0-1.774 1.496-2.833 4-2.833 2.818 0 4.212.978 4.388 3.076.001.007.001.015.001.022 0 .141-.114.254-.254.254h-1.133c-.12 0-.221-.085-.246-.198v-.002c-.274-1.218-.94-1.607-2.746-1.607-2.023 0-2.258.705-2.258 1.232 0 .64.278.826 3.009 1.187 2.702.358 3.986.863 3.986 2.762-.004 1.919-1.601 3.017-4.388 3.017z" />

    </g>

    <g id="iconGit">
        <g>
            <path
                d="M98.6961598,59.3124474 L55.6354962,59.3124474 C54.5247282,59.3124474 53.623096,60.2151464 53.623096,61.3259144 L53.623096,82.3792882 C53.623096,83.4900562 54.5247282,84.3938224 55.6354962,84.3938224 L72.4335936,84.3938224 L72.4335936,110.550753 C72.4335936,110.550753 68.6616775,111.836513 58.2336902,111.836513 C45.930948,111.836513 28.744455,107.341157 28.744455,69.5494382 C28.744455,31.7491835 46.6405165,26.7758029 63.4418154,26.7758029 C77.9852995,26.7758029 84.2508415,29.336651 88.2372288,30.5701264 C89.4899103,30.9542537 90.648694,29.706907 90.648694,28.5950722 L95.4524188,8.25340062 C95.4524188,7.73376182 95.2763603,7.10742103 94.6830971,6.68167999 C93.0644278,5.52716422 83.1870225,-1.42108547e-14 58.2336902,-1.42108547e-14 C29.487101,-1.42108547e-14 0,12.2301846 0,71.022993 C0,129.817935 33.7605165,138.579238 62.2094068,138.579238 C85.7649432,138.579238 100.054476,128.51297 100.054476,128.51297 C100.643471,128.187529 100.707493,127.364856 100.707493,126.987131 L100.707493,61.3259144 C100.707493,60.2151464 99.8069278,59.3124474 98.6961598,59.3124474 Z M320.495497,7.35923776 C320.495497,6.23886664 319.607737,5.33510059 318.496969,5.33510059 L294.251072,5.33510059 C293.143503,5.33510059 292.24294,6.23886664 292.24294,7.35923776 C292.24294,7.36457288 292.24934,54.215292 292.24934,54.215292 L254.456556,54.215292 L254.456556,7.35923776 C254.456556,6.23886664 253.564526,5.33510059 252.455893,5.33510059 L228.211061,5.33510059 C227.107764,5.33510059 226.208265,6.23886664 226.208265,7.35923776 L226.208265,134.231131 C226.208265,135.350435 227.107764,136.26167 228.211061,136.26167 L252.455893,136.26167 C253.564526,136.26167 254.456556,135.350435 254.456556,134.231131 L254.456556,79.9635547 L292.24934,79.9635547 C292.24934,79.9635547 292.183187,134.226863 292.183187,134.231131 C292.183187,135.350435 293.082684,136.26167 294.191317,136.26167 L318.494835,136.26167 C319.605604,136.26167 320.493364,135.350435 320.495497,134.231131 L320.495497,7.35923776 Z M144.371023,24.3216565 C144.371023,15.591298 137.371371,8.53616094 128.735977,8.53616094 C120.10912,8.53616094 113.104133,15.591298 113.104133,24.3216565 C113.104133,33.042412 120.10912,40.1167554 128.735977,40.1167554 C137.371371,40.1167554 144.371023,33.042412 144.371023,24.3216565 Z M142.447186,107.534288 L142.447186,48.9698214 C142.447186,47.8579864 141.549822,46.9488852 140.441188,46.9488852 L116.272115,46.9488852 C115.163481,46.9488852 114.171153,48.0927309 114.171153,49.2045657 L114.171153,133.109693 C114.171153,135.575576 115.707662,136.308619 117.696587,136.308619 L139.472334,136.308619 C141.861392,136.308619 142.447186,135.135964 142.447186,133.070213 L142.447186,107.534288 Z M413.161929,46.9488852 L389.10169,46.9488852 C387.998389,46.9488852 387.099963,47.8579864 387.099963,48.9772906 L387.099963,111.186697 C387.099963,111.186697 380.988068,115.658579 372.312128,115.658579 C363.637256,115.658579 361.334627,111.722341 361.334627,103.227794 L361.334627,48.9772906 C361.334627,47.8579864 360.43833,46.9488852 359.333962,46.9488852 L334.915206,46.9488852 C333.812978,46.9488852 332.910277,47.8579864 332.910277,48.9772906 L332.910277,107.335822 C332.910277,132.566579 346.972537,138.739291 366.317608,138.739291 C382.1874,138.739291 394.983106,129.971587 394.983106,129.971587 C394.983106,129.971587 395.592374,134.591784 395.867664,135.140232 C396.144024,135.686546 396.862125,136.238196 397.63785,136.238196 L413.172597,136.169906 C414.274829,136.169906 415.177528,135.258671 415.177528,134.144702 L415.170059,48.9772906 C415.170059,47.8579864 414.27056,46.9488852 413.161929,46.9488852 Z M468.596822,115.706595 C460.251661,115.452644 454.591116,111.665789 454.591116,111.665789 L454.591116,71.4882139 C454.591116,71.4882139 460.175898,68.0652134 467.027235,67.4527437 C475.691441,66.6770202 484.039804,69.2944203 484.039804,89.9626002 C484.039804,111.757553 480.272156,116.058711 468.596822,115.706595 Z M478.086899,44.2237159 C464.421573,44.2237159 455.12676,50.3206689 455.12676,50.3206689 L455.12676,7.35923776 C455.12676,6.23886664 454.231532,5.33510059 453.126097,5.33510059 L428.811913,5.33510059 C427.706479,5.33510059 426.808048,6.23886664 426.808048,7.35923776 L426.808048,134.231131 C426.808048,135.350435 427.706479,136.26167 428.815112,136.26167 L445.684702,136.26167 C446.444417,136.26167 447.019542,135.870074 447.444215,135.18398 C447.863555,134.502154 448.468557,129.334575 448.468557,129.334575 C448.468557,129.334575 458.41105,138.756363 477.232216,138.756363 C499.328069,138.756363 512,127.548384 512,88.4410293 C512,49.3336752 491.761829,44.2237159 478.086899,44.2237159 Z M212.229235,46.731213 L194.041876,46.731213 C194.041876,46.731213 194.014134,22.7093892 194.014134,22.704054 C194.014134,21.7949529 193.545712,21.3404024 192.494697,21.3404024 L167.709954,21.3404024 C166.746435,21.3404024 166.22893,21.7640094 166.22893,22.6901829 L166.22893,47.5197408 C166.22893,47.5197408 153.808816,50.5180675 152.969071,50.760281 C152.132527,51.0024947 151.516857,51.77395 151.516857,52.6937215 L151.516857,68.2967567 C151.516857,69.4192619 152.413154,70.3240948 153.521788,70.3240948 L166.22893,70.3240948 L166.22893,107.859729 C166.22893,135.739897 185.785275,138.478938 198.98218,138.478938 C205.011911,138.478938 212.224966,136.542296 213.41576,136.102684 C214.135999,135.838063 214.554271,135.092216 214.554271,134.283415 L214.574544,117.119329 C214.574544,116.000025 213.629165,115.094125 212.564279,115.094125 C211.504728,115.094125 208.79343,115.525201 206.002106,115.525201 C197.069013,115.525201 194.041876,111.371292 194.041876,105.994577 C194.041876,100.622131 194.04081,70.3240948 194.04081,70.3240948 L212.229235,70.3240948 C213.337868,70.3240948 214.235233,69.4192619 214.235233,68.2967567 L214.235233,48.7532162 C214.235233,47.633912 213.337868,46.731213 212.229235,46.731213 Z"
                fill="#FFB400">

            </path>
        </g>
    </g>

    <g id="iconHtml">
        <path
            d="M0.5 0.5V0C0.360174 0 0.226736 0.0585498 0.132059 0.161445C0.0373814 0.264341 -0.00988477 0.40218 0.00172713 0.541523L0.5 0.5ZM14.5 0.5L14.9983 0.541523C15.0099 0.40218 14.9626 0.264341 14.8679 0.161445C14.7733 0.0585498 14.6398 0 14.5 0V0.5ZM13.5 12.5L13.6581 12.9743C13.8479 12.9111 13.9817 12.7408 13.9983 12.5415L13.5 12.5ZM7.5 14.5L7.34189 14.9743C7.44452 15.0086 7.55548 15.0086 7.65811 14.9743L7.5 14.5ZM1.5 12.5L1.00173 12.5415C1.01834 12.7408 1.15214 12.9111 1.34189 12.9743L1.5 12.5ZM4.5 3.5V3H4V3.5H4.5ZM4.5 6.5H4V7H4.5V6.5ZM10.5 6.5H11V6H10.5V6.5ZM10.5 9.5L10.6581 9.97434L11 9.86038V9.5H10.5ZM7.5 10.5L7.34189 10.9743L7.5 11.027L7.65811 10.9743L7.5 10.5ZM4.5 9.5H4V9.86038L4.34189 9.97434L4.5 9.5ZM0.5 1H14.5V0H0.5V1ZM14.0017 0.458477L13.0017 12.4585L13.9983 12.5415L14.9983 0.541523L14.0017 0.458477ZM13.3419 12.0257L7.34189 14.0257L7.65811 14.9743L13.6581 12.9743L13.3419 12.0257ZM7.65811 14.0257L1.65811 12.0257L1.34189 12.9743L7.34189 14.9743L7.65811 14.0257ZM1.99827 12.4585L0.998273 0.458477L0.00172713 0.541523L1.00173 12.5415L1.99827 12.4585ZM11 3H4.5V4H11V3ZM4 3.5V6.5H5V3.5H4ZM4.5 7H10.5V6H4.5V7ZM10 6.5V9.5H11V6.5H10ZM10.3419 9.02566L7.34189 10.0257L7.65811 10.9743L10.6581 9.97434L10.3419 9.02566ZM7.65811 10.0257L4.65811 9.02566L4.34189 9.97434L7.34189 10.9743L7.65811 10.0257ZM5 9.5V8H4V9.5H5Z"
            fill="#FFB400" />

    </g>

    <g>
        <g id="iconCss">
            <path
                d="M0.5 0.5V0C0.360174 0 0.226736 0.0585498 0.132059 0.161445C0.0373814 0.264341 -0.00988477 0.40218 0.00172713 0.541523L0.5 0.5ZM14.5 0.5L14.9983 0.541523C15.0099 0.40218 14.9626 0.264341 14.8679 0.161445C14.7733 0.0585498 14.6398 0 14.5 0V0.5ZM13.5 12.5L13.6581 12.9743C13.8479 12.9111 13.9817 12.7408 13.9983 12.5415L13.5 12.5ZM7.5 14.5L7.34189 14.9743C7.44452 15.0086 7.55548 15.0086 7.65811 14.9743L7.5 14.5ZM1.5 12.5L1.00173 12.5415C1.01834 12.7408 1.15214 12.9111 1.34189 12.9743L1.5 12.5ZM10.5 3.5H11V3H10.5V3.5ZM10.5 9.5L10.6581 9.97434L11 9.86038V9.5H10.5ZM7.5 10.5L7.34189 10.9743L7.5 11.027L7.65811 10.9743L7.5 10.5ZM4.5 9.5H4V9.86038L4.34189 9.97434L4.5 9.5ZM0.5 1H14.5V0H0.5V1ZM14.0017 0.458477L13.0017 12.4585L13.9983 12.5415L14.9983 0.541523L14.0017 0.458477ZM13.3419 12.0257L7.34189 14.0257L7.65811 14.9743L13.6581 12.9743L13.3419 12.0257ZM7.65811 14.0257L1.65811 12.0257L1.34189 12.9743L7.34189 14.9743L7.65811 14.0257ZM1.99827 12.4585L0.998273 0.458477L0.00172713 0.541523L1.00173 12.5415L1.99827 12.4585ZM10.5 3H4V4H10.5V3ZM6 7H10.5V6H6V7ZM10 6.5V9.5H11V6.5H10ZM10.3419 9.02566L7.34189 10.0257L7.65811 10.9743L10.6581 9.97434L10.3419 9.02566ZM7.65811 10.0257L4.65811 9.02566L4.34189 9.97434L7.34189 10.9743L7.65811 10.0257ZM5 9.5V8H4V9.5H5ZM10 3.5V6.5H11V3.5H10Z"
                fill="#FFB400" />
        </g>
    </g>

    <g id="iconReact">
        <path
            d="M29.207 8.375c-1.167-2.020-3.979-2.715-7.56-2.158-1.308-3.38-3.315-5.467-5.647-5.467-2.34 0-4.353 2.104-5.66 5.505-0.211-0.033-0.437-0.095-0.644-0.12-3.389-0.406-5.837 0.392-6.902 2.24-1.067 1.849-0.531 4.369 1.511 7.099 0.132 0.177 0.308 0.35 0.451 0.527-0.143 0.176-0.319 0.35-0.451 0.527-2.042 2.729-2.578 5.25-1.512 7.098 1.039 1.447 2.717 2.379 4.613 2.379 0.228 0 0.453-0.013 0.674-0.040l-0.027 0.003c0.581-0.002 1.152-0.038 1.712-0.109l-0.068 0.007c0.207-0.025 0.432-0.087 0.644-0.12 1.307 3.401 3.32 5.505 5.66 5.505 2.333 0 4.342-2.091 5.65-5.476 0.672 0.116 1.45 0.186 2.243 0.194l0.008 0c0.196 0.024 0.423 0.037 0.653 0.037 1.908 0 3.599-0.931 4.642-2.365l0.011-0.016c1.166-2.019 0.361-4.802-1.913-7.625 2.274-2.822 3.078-5.605 1.913-7.625zM24.004 8.524c1.529 0 2.621 0.377 3.039 1.101 0.549 0.953-0.018 2.62-1.472 4.5-0.781-0.748-1.618-1.459-2.496-2.118l-0.070-0.051c-0.151-1.274-0.359-2.397-0.634-3.493l0.040 0.188c0.473-0.073 1.024-0.119 1.585-0.127l0.009-0zM18.375 20.113c-0.789 0.455-1.583 0.868-2.374 1.238-0.781-0.364-1.575-0.776-2.376-1.238-0.789-0.455-1.543-0.937-2.259-1.437-0.075-0.858-0.116-1.752-0.116-2.677s0.041-1.819 0.116-2.677c0.716-0.5 1.47-0.981 2.259-1.437v-0.001c0.806-0.465 1.602-0.867 2.387-1.233 0.787 0.369 1.578 0.78 2.363 1.234v-0.001c0.801 0.462 1.554 0.945 2.259 1.439 0.075 0.858 0.116 1.751 0.116 2.675s-0.041 1.817-0.116 2.675c-0.706 0.494-1.459 0.976-2.259 1.439zM20.146 21.961c-0.063 0.297-0.132 0.584-0.204 0.865-0.285-0.080-0.573-0.166-0.867-0.261 0.183-0.101 0.368-0.182 0.551-0.288 0.179-0.103 0.346-0.211 0.521-0.316zM12.891 22.558c-0.28 0.090-0.56 0.181-0.835 0.258-0.072-0.284-0.141-0.573-0.205-0.872 0.179 0.108 0.342 0.228 0.524 0.333 0.173 0.1 0.344 0.185 0.516 0.281zM8.763 16.585c-0.215-0.194-0.429-0.388-0.631-0.585 0.201-0.197 0.416-0.39 0.631-0.585-0.003 0.196-0.013 0.387-0.013 0.585s0.010 0.389 0.013 0.585zM11.851 10.053c0.064-0.299 0.133-0.587 0.205-0.87 0.274 0.077 0.552 0.167 0.831 0.257-0.171 0.095-0.341 0.182-0.512 0.281-0.182 0.105-0.345 0.225-0.524 0.333zM19.077 9.435c0.294-0.095 0.58-0.178 0.865-0.258 0.071 0.281 0.14 0.566 0.203 0.861-0.175-0.105-0.342-0.213-0.52-0.316v-0.001c-0.181-0.105-0.366-0.185-0.548-0.286zM23.237 15.42c0.214 0.194 0.433 0.387 0.631 0.58-0.198 0.193-0.417 0.386-0.631 0.58 0.003-0.194 0.013-0.383 0.013-0.58s-0.010-0.386-0.013-0.58zM16 3.25c1.101 0 2.264 1.32 3.165 3.521-1.285 0.377-2.347 0.77-3.377 1.225l0.175-0.069c-0.835-0.371-1.878-0.752-2.949-1.069l-0.194-0.049c0.903-2.225 2.074-3.559 3.181-3.559zM4.959 9.625c0.409-0.709 1.524-1.094 3.084-1.094 0.481 0.002 0.952 0.033 1.414 0.092l-0.057-0.006c0.061 0.007 0.128 0.027 0.189 0.036-0.238 0.92-0.448 2.055-0.586 3.213l-0.013 0.13c-0.935 0.706-1.761 1.412-2.542 2.165l0.009-0.008c-0.046-0.059-0.107-0.117-0.151-0.176-1.364-1.823-1.868-3.449-1.348-4.351zM9.4 23.383c-2.264 0.27-3.922-0.105-4.442-1.008-0.52-0.9-0.016-2.527 1.349-4.35 0.044-0.059 0.106-0.118 0.152-0.177 0.773 0.744 1.598 1.45 2.464 2.106l0.069 0.050c0.15 1.287 0.361 2.423 0.639 3.531l-0.040-0.189c-0.061 0.008-0.129 0.028-0.189 0.036zM16 28.75c-1.107 0-2.278-1.334-3.181-3.559 1.266-0.367 2.31-0.748 3.323-1.188l-0.177 0.069c0.857 0.385 1.921 0.775 3.014 1.098l0.192 0.049c-0.901 2.208-2.067 3.532-3.169 3.532zM27.043 22.375c-0.551 0.952-2.277 1.3-4.634 0.979 0.236-0.91 0.445-2.034 0.583-3.181l0.013-0.13c0.948-0.709 1.785-1.42 2.577-2.177l-0.010 0.009c1.455 1.879 2.022 3.547 1.472 4.5zM16 12.75c-1.795 0-3.25 1.455-3.25 3.25s1.455 3.25 3.25 3.25c1.795 0 3.25-1.455 3.25-3.25v0c-0.002-1.794-1.456-3.248-3.25-3.25h-0zM16 16.75c-0.414 0-0.75-0.336-0.75-0.75s0.336-0.75 0.75-0.75c0.414 0 0.75 0.336 0.75 0.75v0c-0.001 0.414-0.336 0.749-0.75 0.75h-0z"></path>
    </g>


    <!-- Icon My Works -->
    <g id="plus">
        <g clip-path="url(#clip0_10_1504)">
            <path
                d="M23.8334 23.8333V10.8333H28.1667V23.8333H41.1667V28.1666H28.1667V41.1666H23.8334V28.1666H10.8334V23.8333H23.8334Z"
                fill="#2B2B2B" />
        </g>
        <defs>
            <clipPath id="clip0_10_1504">
                <rect width="52" height="52" fill="white" />
            </clipPath>
        </defs>
    </g>


    <!-- Icon Contacts -->

    <g id="instagram">
        <path
            d="M58.1875 0H17.8125C7.97493 0 0 7.97493 0 17.8125V58.1875C0 68.0251 7.97493 76 17.8125 76H58.1875C68.0251 76 76 68.0251 76 58.1875V17.8125C76 7.97493 68.0251 0 58.1875 0Z"
            fill="url(#paint0_radial_71499_314)" />
        <path
            d="M58.1875 0H17.8125C7.97493 0 0 7.97493 0 17.8125V58.1875C0 68.0251 7.97493 76 17.8125 76H58.1875C68.0251 76 76 68.0251 76 58.1875V17.8125C76 7.97493 68.0251 0 58.1875 0Z"
            fill="url(#paint1_radial_71499_314)" />
        <path
            d="M38.0027 8.3125C29.9401 8.3125 28.9281 8.34783 25.7616 8.49181C22.6011 8.63669 20.4437 9.13692 18.5562 9.87109C16.6033 10.6293 14.9471 11.6437 13.297 13.2944C11.6455 14.9447 10.6311 16.601 9.8705 18.5529C9.13425 20.441 8.63342 22.5993 8.49122 25.7584C8.34961 28.9251 8.3125 29.9375 8.3125 38.0003C8.3125 46.0631 8.34813 47.0719 8.49181 50.2384C8.63728 53.3989 9.13752 55.5563 9.87109 57.4438C10.6299 59.3967 11.6443 61.0529 13.295 62.703C14.9447 64.3545 16.601 65.3713 18.5523 66.1295C20.4413 66.8637 22.599 67.3639 25.759 67.5088C28.9257 67.6528 29.9369 67.6881 37.9991 67.6881C46.0625 67.6881 47.0713 67.6528 50.2378 67.5088C53.3983 67.3639 55.5581 66.8637 57.4471 66.1295C59.399 65.3713 61.0529 64.3545 62.7024 62.703C64.3539 61.0529 65.368 59.3967 66.1289 57.4447C66.8586 55.5563 67.3597 53.3983 67.5082 50.239C67.6504 47.0725 67.6875 46.0631 67.6875 38.0003C67.6875 29.9375 67.6504 28.9257 67.5082 25.759C67.3597 22.5984 66.8586 20.4413 66.1289 18.5538C65.368 16.601 64.3539 14.9447 62.7024 13.2944C61.0512 11.6431 59.3996 10.6287 57.4453 9.87139C55.5527 9.13692 53.3942 8.63639 50.2336 8.49181C47.0669 8.34783 46.0587 8.3125 37.9935 8.3125H38.0027ZM35.3394 13.6625C36.13 13.6613 37.012 13.6625 38.0027 13.6625C45.9295 13.6625 46.8688 13.691 49.9991 13.8332C52.8936 13.9656 54.4647 14.4492 55.5112 14.8556C56.8967 15.3936 57.8844 16.0369 58.9229 17.0763C59.9619 18.1153 60.605 19.1048 61.1444 20.4903C61.5508 21.5353 62.035 23.1064 62.1668 26.0009C62.309 29.1306 62.3399 30.0705 62.3399 37.9935C62.3399 45.9165 62.309 46.8567 62.1668 49.986C62.0344 52.8806 61.5508 54.4516 61.1444 55.4969C60.6064 56.8824 59.9619 57.869 58.9229 58.9074C57.8838 59.9465 56.8973 60.5895 55.5112 61.1278C54.4659 61.536 52.8936 62.0184 49.9991 62.1508C46.8694 62.293 45.9295 62.3239 38.0027 62.3239C30.0755 62.3239 29.1359 62.293 26.0065 62.1508C23.112 62.0172 21.541 61.5336 20.4936 61.1272C19.1084 60.5889 18.1186 59.9459 17.0795 58.9068C16.0405 57.8678 15.3974 56.8807 14.858 55.4945C14.4516 54.4493 13.9674 52.8782 13.8356 49.9837C13.6934 46.854 13.6649 45.9141 13.6649 37.986C13.6649 30.058 13.6934 29.1231 13.8356 25.9935C13.968 23.099 14.4516 21.5279 14.858 20.4814C15.3962 19.0959 16.0405 18.1064 17.0798 17.0673C18.1192 16.0283 19.1084 15.385 20.4939 14.8458C21.5404 14.4376 23.112 13.9552 26.0065 13.8222C28.7452 13.6984 29.8065 13.6613 35.3394 13.6551V13.6625ZM53.8499 18.5918C51.8831 18.5918 50.2874 20.186 50.2874 22.1531C50.2874 24.1199 51.8831 25.7156 53.8499 25.7156C55.8167 25.7156 57.4124 24.1199 57.4124 22.1531C57.4124 20.1863 55.8167 18.5906 53.8499 18.5906V18.5918ZM38.0027 22.7543C29.5833 22.7543 22.757 29.5806 22.757 38.0003C22.757 46.42 29.5833 53.243 38.0027 53.243C46.4223 53.243 53.2463 46.42 53.2463 38.0003C53.2463 29.5809 46.4218 22.7543 38.0021 22.7543H38.0027ZM38.0027 28.1043C43.4678 28.1043 47.8987 32.5345 47.8987 38.0003C47.8987 43.4655 43.4678 47.8963 38.0027 47.8963C32.5375 47.8963 28.1069 43.4655 28.1069 38.0003C28.1069 32.5345 32.5372 28.1043 38.0027 28.1043Z"
            fill="white" />
        <defs>
            <radialGradient id="paint0_radial_71499_314" cx="0" cy="0" r="1"
                gradientUnits="userSpaceOnUse"
                gradientTransform="translate(20.1875 81.8535) rotate(-90) scale(75.3216 70.0551)">
                <stop stop-color="#FFDD55" />
                <stop offset="0.1" stop-color="#FFDD55" />
                <stop offset="0.5" stop-color="#FF543E" />
                <stop offset="1" stop-color="#C837AB" />
            </radialGradient>
            <radialGradient id="paint1_radial_71499_314" cx="0" cy="0" r="1"
                gradientUnits="userSpaceOnUse"
                gradientTransform="translate(-12.7303 5.47467) rotate(78.681) scale(33.6692 138.785)">
                <stop stop-color="#3771C8" />
                <stop offset="0.128" stop-color="#3771C8" />
                <stop offset="1" stop-color="#6600FF" stop-opacity="0" />
            </radialGradient>
        </defs>
    </g>

    <g id="telegram">
        <path
            d="M39 0C28.6589 0 18.7322 4.00603 11.4258 11.1298C4.11189 18.2565 0.00209289 27.9216 0 38C0 48.0742 4.11328 57.7463 11.4258 64.8702C18.7322 71.994 28.6589 76 39 76C49.3411 76 59.2678 71.994 66.5742 64.8702C73.8867 57.7463 78 48.0742 78 38C78 27.9258 73.8867 18.2537 66.5742 11.1298C59.2678 4.00603 49.3411 0 39 0Z"
            fill="url(#paint0_linear_71497_316)" />
        <path
            d="M17.6536 37.5986C29.0245 32.7726 36.6051 29.5909 40.3955 28.0535C51.2301 23.6639 53.4787 22.9015 54.9473 22.8757C55.2703 22.8707 55.9894 22.9484 56.4586 23.3181C56.8486 23.6298 56.9583 24.0513 57.0131 24.3473C57.0619 24.643 57.1289 25.3169 57.0741 25.843C56.4891 31.8517 53.948 46.433 52.6561 53.1632C52.1137 56.0108 51.0351 56.9656 49.9931 57.0588C47.7262 57.2618 46.0078 55.6005 43.8141 54.1999C40.3833 52.0072 38.4455 50.6427 35.1122 48.5034C31.2609 46.0311 33.7594 44.672 35.9531 42.4514C36.5259 41.8701 46.5075 33.0262 46.6964 32.224C46.7208 32.1237 46.7451 31.7496 46.5136 31.5525C46.2881 31.3548 45.953 31.4224 45.7092 31.4759C45.3619 31.5519 39.8836 35.0835 29.2561 42.0702C27.7022 43.1116 26.2945 43.6193 25.027 43.5925C23.6376 43.5634 20.9564 42.8254 18.9637 42.1949C16.5262 41.4212 14.5823 41.0121 14.753 39.6981C14.8383 39.0141 15.8072 38.3141 17.6536 37.5986Z"
            fill="white" />
        <defs>
            <linearGradient id="paint0_linear_71497_316" x1="3900" y1="0" x2="3900" y2="7600"
                gradientUnits="userSpaceOnUse">
                <stop stop-color="#2AABEE" />
                <stop offset="1" stop-color="#229ED9" />
            </linearGradient>
        </defs>
    </g>

    <g id="linkedin">
        <path
            d="M61.625 1.59351H6.375C5.12142 1.58075 3.91397 2.06581 3.0176 2.94226C2.12123 3.81871 1.60916 5.01495 1.59375 6.26851V61.7416C1.61195 62.9933 2.12525 64.1869 3.02131 65.061C3.91737 65.9352 5.12323 66.4188 6.375 66.406H61.625C62.8787 66.416 64.0853 65.9292 64.9812 65.0523C65.8771 64.1753 66.3894 62.9793 66.4062 61.7257V6.25257C66.3839 5.00269 65.8691 3.81215 64.9738 2.93973C64.0785 2.0673 62.875 1.58351 61.625 1.59351Z"
            fill="#0076B2" />
        <path
            d="M11.1881 25.8877H20.809V56.8436H11.1881V25.8877ZM16.0012 10.4814C17.1047 10.4814 18.1834 10.8087 19.1008 11.4219C20.0182 12.0351 20.7332 12.9066 21.1552 13.9261C21.5773 14.9457 21.6874 16.0676 21.4718 17.1498C21.2561 18.232 20.7243 19.2259 19.9437 20.0058C19.163 20.7857 18.1686 21.3165 17.0862 21.5312C16.0038 21.7458 14.8821 21.6346 13.8629 21.2116C12.8437 20.7885 11.9729 20.0728 11.3606 19.1547C10.7483 18.2367 10.422 17.1577 10.4231 16.0543C10.4245 14.5758 11.0128 13.1583 12.0588 12.1134C13.1047 11.0684 14.5227 10.4814 16.0012 10.4814ZM26.844 25.8877H36.0665V30.1377H36.194C37.4797 27.7046 40.614 25.1386 45.2943 25.1386C55.0375 25.1174 56.8437 31.5296 56.8437 39.8436V56.8436H47.2228V41.7827C47.2228 38.1968 47.159 33.5802 42.2237 33.5802C37.2884 33.5802 36.449 37.4902 36.449 41.5489V56.8436H26.844V25.8877Z"
            fill="white" />

    </g>

    <g id="twitter">
        <g clip-path="url(#clip0_1_1465)">
            <path
                d="M12.9278 3.29953C12.4825 3.49652 12.0102 3.62589 11.5267 3.68337C12.0364 3.37854 12.4178 2.89879 12.6 2.33353C12.1217 2.6182 11.5973 2.8177 11.0507 2.92562C10.6835 2.53279 10.1969 2.27226 9.66639 2.18454C9.13591 2.09682 8.5913 2.18682 8.11724 2.44055C7.64318 2.69428 7.26623 3.09752 7.04498 3.58758C6.82374 4.07764 6.7706 4.62707 6.89383 5.15045C5.92381 5.10183 4.97486 4.84976 4.10858 4.41059C3.24231 3.97142 2.47807 3.35498 1.8655 2.60128C1.64867 2.97371 1.53472 3.39708 1.53533 3.82803C1.53533 4.67387 1.96583 5.42112 2.62033 5.85862C2.23301 5.84642 1.8542 5.74182 1.5155 5.55354V5.58387C1.51562 6.14719 1.71055 6.69314 2.06724 7.12915C2.42394 7.56516 2.92045 7.8644 3.47258 7.97612C3.11303 8.07356 2.73601 8.08792 2.37008 8.01812C2.52576 8.503 2.82917 8.92707 3.23785 9.23093C3.64652 9.5348 4.13999 9.70325 4.64917 9.7127C4.14311 10.1101 3.56369 10.4039 2.94401 10.5773C2.32434 10.7507 1.67657 10.8002 1.03775 10.723C2.15291 11.4402 3.45106 11.8209 4.77692 11.8197C9.2645 11.8197 11.7186 8.10212 11.7186 4.87804C11.7186 4.77304 11.7157 4.66687 11.711 4.56303C12.1887 4.2178 12.6009 3.79013 12.9284 3.30012L12.9278 3.29953Z"
                fill="#1B1B1B" />
        </g>
        <defs>
            <clipPath id="clip0_1_1465">
                <rect width="14" height="14" fill="white" />
            </clipPath>
        </defs>
    </g>


    <!-- Icon Fotter -->
    <g id="copyright">
        <g clip-path="url(#clip0_1_1558)">
            <path
                d="M12 2C17.52 2 22 6.48 22 12C22 17.52 17.52 22 12 22C6.48 22 2 17.52 2 12C2 6.48 6.48 2 12 2ZM12 4C7.58 4 4 7.58 4 12C4 16.42 7.58 20 12 20C16.42 20 20 16.42 20 12C20 7.58 16.42 4 12 4ZM12 7C13.82 7 15.413 7.973 16.288 9.428L14.574 10.457C14.3043 10.0072 13.9213 9.63605 13.4634 9.38045C13.0055 9.12484 12.4885 8.99374 11.9641 9.00023C11.4397 9.00672 10.9262 9.15056 10.4747 9.41742C10.0232 9.68428 9.6496 10.0648 9.39107 10.5211C9.13254 10.9774 8.99815 11.4935 9.00128 12.0179C9.00442 12.5424 9.14498 13.0568 9.40895 13.51C9.67292 13.9632 10.0511 14.3392 10.5057 14.6007C10.9603 14.8621 11.4756 14.9998 12 15C12.5181 15.0003 13.0275 14.8664 13.4785 14.6112C13.9294 14.356 14.3065 13.9883 14.573 13.544L16.288 14.572C15.726 15.5106 14.8716 16.239 13.8559 16.6453C12.8402 17.0517 11.7192 17.1137 10.6649 16.8217C9.61058 16.5298 8.68114 15.9 8.01914 15.029C7.35713 14.1581 6.99912 13.094 7 12C7 9.24 9.24 7 12 7Z"
                fill="#c9d7e0" />
        </g>
        <defs>
            <clipPath id="clip0_1_1558">
                <rect width="24" height="24" fill="white" />
            </clipPath>
        </defs>
    </g>

</svg>